<svg xmlns="http://www.w3.org/2000/svg" width="36" height="36" viewBox="0 0 36 36" fill="none">
  <g clip-path="url(#clip0_1956_26195)">
    <path d="M32.3814 31.201L30.3098 7.85427C30.2725 7.39226 29.885 7.04202 29.4156 7.04202H25.0488C25.0413 3.15959 21.8817 0 17.9993 0C14.1169 0 10.9573 3.15959 10.9498 7.04202H6.58303C6.12102 7.04202 5.73352 7.39226 5.68881 7.85427L3.61719 31.201C3.61719 31.2308 3.61719 31.2532 3.61719 31.283C3.61719 33.8837 6.00924 36 8.94528 36H27.0533C29.9894 36 32.3814 33.8837 32.3814 31.283C32.3814 31.2532 32.3814 31.2308 32.3814 31.201ZM17.9993 1.78845C20.8981 1.78845 23.2529 4.14324 23.2603 7.04202H12.7383C12.7457 4.14324 15.1005 1.78845 17.9993 1.78845ZM27.0533 34.2041H8.94528C7.00779 34.2041 5.42799 32.9149 5.40564 31.3128L7.40274 8.83047H10.9498V11.9677C10.9498 12.4595 11.3522 12.8619 11.8441 12.8619C12.3359 12.8619 12.7383 12.4595 12.7383 11.9677V8.83047H23.2603V11.9677C23.2603 12.4595 23.6627 12.8619 24.1546 12.8619C24.6464 12.8619 25.0488 12.4595 25.0488 11.9677V8.83047H28.5959L30.593 31.3202C30.5706 32.9149 28.9908 34.2041 27.0533 34.2041Z" fill="#00B307"/>
    <path d="M32.3814 31.201L30.3098 7.85427C30.2725 7.39226 29.885 7.04202 29.4156 7.04202H25.0488C25.0413 3.15959 21.8817 0 17.9993 0C14.1169 0 10.9573 3.15959 10.9498 7.04202H6.58303C6.12102 7.04202 5.73352 7.39226 5.68881 7.85427L3.61719 31.201C3.61719 31.2308 3.61719 31.2532 3.61719 31.283C3.61719 33.8837 6.00924 36 8.94528 36H27.0533C29.9894 36 32.3814 33.8837 32.3814 31.283C32.3814 31.2532 32.3814 31.2308 32.3814 31.201ZM17.9993 1.78845C20.8981 1.78845 23.2529 4.14324 23.2603 7.04202H12.7383C12.7457 4.14324 15.1005 1.78845 17.9993 1.78845ZM27.0533 34.2041H8.94528C7.00779 34.2041 5.42799 32.9149 5.40564 31.3128L7.40274 8.83047H10.9498V11.9677C10.9498 12.4595 11.3522 12.8619 11.8441 12.8619C12.3359 12.8619 12.7383 12.4595 12.7383 11.9677V8.83047H23.2603V11.9677C23.2603 12.4595 23.6627 12.8619 24.1546 12.8619C24.6464 12.8619 25.0488 12.4595 25.0488 11.9677V8.83047H28.5959L30.593 31.3202C30.5706 32.9149 28.9908 34.2041 27.0533 34.2041Z" fill="black" fill-opacity="0.2"/>
    <path d="M21.7168 18.6148L16.4409 23.8908L14.2873 21.7372C13.9371 21.3869 13.3707 21.3869 13.0205 21.7372C12.6703 22.0874 12.6703 22.6537 13.0205 23.004L15.8075 25.791C15.9789 25.9624 16.2099 26.0518 16.4409 26.0518C16.6719 26.0518 16.8955 25.9624 17.0743 25.791L22.9836 19.8816C23.3339 19.5314 23.3339 18.9651 22.9836 18.6148C22.6334 18.272 22.0671 18.272 21.7168 18.6148Z" fill="#00B307"/>
    <path d="M21.7168 18.6148L16.4409 23.8908L14.2873 21.7372C13.9371 21.3869 13.3707 21.3869 13.0205 21.7372C12.6703 22.0874 12.6703 22.6537 13.0205 23.004L15.8075 25.791C15.9789 25.9624 16.2099 26.0518 16.4409 26.0518C16.6719 26.0518 16.8955 25.9624 17.0743 25.791L22.9836 19.8816C23.3339 19.5314 23.3339 18.9651 22.9836 18.6148C22.6334 18.272 22.0671 18.272 21.7168 18.6148Z" fill="black" fill-opacity="0.2"/>
  </g>
  <defs>
    <clipPath id="clip0_1956_26195">
      <rect width="36" height="36" fill="white"/>
    </clipPath>
  </defs>
</svg>