<svg xmlns="http://www.w3.org/2000/svg" width="36" height="36" viewBox="0 0 36 36" fill="none">
  <g clip-path="url(#clip0_1956_26205)">
    <path d="M34.5556 8.48713C34.5556 8.35036 34.5252 8.21359 34.4645 8.08442C34.3429 7.82609 34.1073 7.65133 33.849 7.59814L18.3716 0.0911777C18.1209 -0.0303926 17.8245 -0.0303926 17.5738 0.0911777L1.94441 7.66653C1.64048 7.81089 1.44293 8.11482 1.42773 8.45673V8.46433C1.42773 8.47193 1.42773 8.47953 1.42773 8.49472V27.5053C1.42773 27.8548 1.62529 28.1739 1.94441 28.3259L17.5738 35.9012C17.5814 35.9012 17.5814 35.9012 17.589 35.9088C17.6118 35.9164 17.6346 35.924 17.6574 35.9392C17.665 35.9392 17.6726 35.9468 17.6878 35.9468C17.7106 35.9544 17.7333 35.962 17.7561 35.9696C17.7637 35.9696 17.7713 35.9772 17.7789 35.9772C17.8017 35.9848 17.8321 35.9848 17.8549 35.9924C17.8625 35.9924 17.8701 35.9924 17.8777 35.9924C17.9081 35.9924 17.9461 36 17.9765 36C18.0069 36 18.0449 36 18.0753 35.9924C18.0829 35.9924 18.0905 35.9924 18.0981 35.9924C18.1209 35.9924 18.1512 35.9848 18.174 35.9772C18.1816 35.9772 18.1892 35.9696 18.1968 35.9696C18.2196 35.962 18.2424 35.9544 18.2652 35.9468C18.2728 35.9468 18.2804 35.9392 18.2956 35.9392C18.3184 35.9316 18.3412 35.924 18.364 35.9088C18.3716 35.9088 18.3716 35.9088 18.3792 35.9012L34.0542 28.3031C34.3657 28.1511 34.5708 27.832 34.5708 27.4825V8.50992C34.5556 8.50232 34.5556 8.49472 34.5556 8.48713ZM17.9689 1.92233L31.524 8.49472L26.532 10.9185L12.9769 4.34614L17.9689 1.92233ZM17.9689 15.0671L4.4138 8.49472L10.8874 5.35669L24.4425 11.9291L17.9689 15.0671ZM3.25129 9.96117L17.0571 16.6551V33.6218L3.25129 26.9278V9.96117ZM18.8807 33.6218V16.6551L25.3619 13.5095V17.9468C25.3619 18.4483 25.7722 18.8586 26.2737 18.8586C26.7751 18.8586 27.1854 18.4483 27.1854 17.9468V12.6205L32.7321 9.93077V26.8974L18.8807 33.6218Z" fill="#00B307"/>
    <path d="M34.5556 8.48713C34.5556 8.35036 34.5252 8.21359 34.4645 8.08442C34.3429 7.82609 34.1073 7.65133 33.849 7.59814L18.3716 0.0911777C18.1209 -0.0303926 17.8245 -0.0303926 17.5738 0.0911777L1.94441 7.66653C1.64048 7.81089 1.44293 8.11482 1.42773 8.45673V8.46433C1.42773 8.47193 1.42773 8.47953 1.42773 8.49472V27.5053C1.42773 27.8548 1.62529 28.1739 1.94441 28.3259L17.5738 35.9012C17.5814 35.9012 17.5814 35.9012 17.589 35.9088C17.6118 35.9164 17.6346 35.924 17.6574 35.9392C17.665 35.9392 17.6726 35.9468 17.6878 35.9468C17.7106 35.9544 17.7333 35.962 17.7561 35.9696C17.7637 35.9696 17.7713 35.9772 17.7789 35.9772C17.8017 35.9848 17.8321 35.9848 17.8549 35.9924C17.8625 35.9924 17.8701 35.9924 17.8777 35.9924C17.9081 35.9924 17.9461 36 17.9765 36C18.0069 36 18.0449 36 18.0753 35.9924C18.0829 35.9924 18.0905 35.9924 18.0981 35.9924C18.1209 35.9924 18.1512 35.9848 18.174 35.9772C18.1816 35.9772 18.1892 35.9696 18.1968 35.9696C18.2196 35.962 18.2424 35.9544 18.2652 35.9468C18.2728 35.9468 18.2804 35.9392 18.2956 35.9392C18.3184 35.9316 18.3412 35.924 18.364 35.9088C18.3716 35.9088 18.3716 35.9088 18.3792 35.9012L34.0542 28.3031C34.3657 28.1511 34.5708 27.832 34.5708 27.4825V8.50992C34.5556 8.50232 34.5556 8.49472 34.5556 8.48713ZM17.9689 1.92233L31.524 8.49472L26.532 10.9185L12.9769 4.34614L17.9689 1.92233ZM17.9689 15.0671L4.4138 8.49472L10.8874 5.35669L24.4425 11.9291L17.9689 15.0671ZM3.25129 9.96117L17.0571 16.6551V33.6218L3.25129 26.9278V9.96117ZM18.8807 33.6218V16.6551L25.3619 13.5095V17.9468C25.3619 18.4483 25.7722 18.8586 26.2737 18.8586C26.7751 18.8586 27.1854 18.4483 27.1854 17.9468V12.6205L32.7321 9.93077V26.8974L18.8807 33.6218Z" fill="black" fill-opacity="0.2"/>
  </g>
  <defs>
    <clipPath id="clip0_1956_26205">
      <rect width="36" height="36" fill="white"/>
    </clipPath>
  </defs>
</svg>