<svg xmlns="http://www.w3.org/2000/svg" width="40" height="40" viewBox="0 0 40 40" fill="none">
  <g clip-path="url(#clip0_1956_26162)">
    <path d="M31.1394 17.37C30.9791 16.8754 30.5595 16.5217 30.0449 16.4471L23.9446 15.5606L21.2166 10.0333C20.9869 9.56674 20.521 9.27698 20.0009 9.27698C19.4808 9.27698 19.0148 9.56674 18.7852 10.0328L16.057 15.5606L9.95664 16.4471C9.44234 16.5217 9.02297 16.8752 8.86211 17.3699C8.7018 17.8638 8.83313 18.3961 9.20523 18.7594L13.6197 23.0621L12.5776 29.1377C12.4895 29.6499 12.696 30.1581 13.1166 30.4638C13.3543 30.6366 13.6324 30.7244 13.9123 30.7243C14.1278 30.7243 14.3444 30.6723 14.5445 30.5671L20.0009 27.6985L25.4569 30.5672C25.6505 30.6689 25.8687 30.7228 26.0875 30.7228C26.3759 30.7228 26.6515 30.6332 26.8847 30.4638C27.3046 30.1584 27.5113 29.6505 27.4237 29.138L27.0116 26.7343C26.9525 26.3905 26.6257 26.1596 26.2823 26.2185C25.9384 26.2775 25.7076 26.6041 25.7666 26.9478L26.1787 29.3511C26.1846 29.3858 26.1701 29.4216 26.1419 29.4421C26.1 29.4726 26.0696 29.4623 26.0444 29.449L20.2944 26.426C20.1105 26.3294 19.8908 26.3293 19.7066 26.426L13.956 29.4492C13.9253 29.4653 13.8871 29.4625 13.8589 29.4421C13.8302 29.4212 13.8161 29.3867 13.8221 29.3515L14.9204 22.9485C14.9556 22.7435 14.8877 22.5345 14.7388 22.3894L10.0869 17.8552C10.0617 17.8306 10.0523 17.7932 10.063 17.7603C10.0739 17.7269 10.1033 17.7021 10.1379 17.6971L16.5669 16.7628C16.7727 16.7329 16.9505 16.6038 17.0425 16.4173L19.9179 10.5914C19.9491 10.5281 20.0519 10.5275 20.0834 10.5917L22.9587 16.4173C23.0507 16.6037 23.2286 16.7329 23.4343 16.7628L29.8634 17.6971C29.8979 17.7021 29.9271 17.7267 29.938 17.7605C29.9488 17.7935 29.9395 17.8306 29.9145 17.8549L25.2625 22.3894C25.1137 22.5345 25.0457 22.7436 25.0809 22.9485L25.428 24.9715C25.4868 25.3153 25.8135 25.5462 26.1571 25.4872C26.5009 25.4282 26.7319 25.1017 26.6728 24.7579L26.382 23.0621L30.7964 18.7592C31.1688 18.396 31.3001 17.8635 31.1394 17.37Z" fill="#00B307"/>
    <path d="M31.1394 17.37C30.9791 16.8754 30.5595 16.5217 30.0449 16.4471L23.9446 15.5606L21.2166 10.0333C20.9869 9.56674 20.521 9.27698 20.0009 9.27698C19.4808 9.27698 19.0148 9.56674 18.7852 10.0328L16.057 15.5606L9.95664 16.4471C9.44234 16.5217 9.02297 16.8752 8.86211 17.3699C8.7018 17.8638 8.83313 18.3961 9.20523 18.7594L13.6197 23.0621L12.5776 29.1377C12.4895 29.6499 12.696 30.1581 13.1166 30.4638C13.3543 30.6366 13.6324 30.7244 13.9123 30.7243C14.1278 30.7243 14.3444 30.6723 14.5445 30.5671L20.0009 27.6985L25.4569 30.5672C25.6505 30.6689 25.8687 30.7228 26.0875 30.7228C26.3759 30.7228 26.6515 30.6332 26.8847 30.4638C27.3046 30.1584 27.5113 29.6505 27.4237 29.138L27.0116 26.7343C26.9525 26.3905 26.6257 26.1596 26.2823 26.2185C25.9384 26.2775 25.7076 26.6041 25.7666 26.9478L26.1787 29.3511C26.1846 29.3858 26.1701 29.4216 26.1419 29.4421C26.1 29.4726 26.0696 29.4623 26.0444 29.449L20.2944 26.426C20.1105 26.3294 19.8908 26.3293 19.7066 26.426L13.956 29.4492C13.9253 29.4653 13.8871 29.4625 13.8589 29.4421C13.8302 29.4212 13.8161 29.3867 13.8221 29.3515L14.9204 22.9485C14.9556 22.7435 14.8877 22.5345 14.7388 22.3894L10.0869 17.8552C10.0617 17.8306 10.0523 17.7932 10.063 17.7603C10.0739 17.7269 10.1033 17.7021 10.1379 17.6971L16.5669 16.7628C16.7727 16.7329 16.9505 16.6038 17.0425 16.4173L19.9179 10.5914C19.9491 10.5281 20.0519 10.5275 20.0834 10.5917L22.9587 16.4173C23.0507 16.6037 23.2286 16.7329 23.4343 16.7628L29.8634 17.6971C29.8979 17.7021 29.9271 17.7267 29.938 17.7605C29.9488 17.7935 29.9395 17.8306 29.9145 17.8549L25.2625 22.3894C25.1137 22.5345 25.0457 22.7436 25.0809 22.9485L25.428 24.9715C25.4868 25.3153 25.8135 25.5462 26.1571 25.4872C26.5009 25.4282 26.7319 25.1017 26.6728 24.7579L26.382 23.0621L30.7964 18.7592C31.1688 18.396 31.3001 17.8635 31.1394 17.37Z" fill="black" fill-opacity="0.2"/>
    <path d="M31.1394 17.37C30.9791 16.8754 30.5595 16.5217 30.0449 16.4471L23.9446 15.5606L21.2166 10.0333C20.9869 9.56674 20.521 9.27698 20.0009 9.27698C19.4808 9.27698 19.0148 9.56674 18.7852 10.0328L16.057 15.5606L9.95664 16.4471C9.44234 16.5217 9.02297 16.8752 8.86211 17.3699C8.7018 17.8638 8.83313 18.3961 9.20523 18.7594L13.6197 23.0621L12.5776 29.1377C12.4895 29.6499 12.696 30.1581 13.1166 30.4638C13.3543 30.6366 13.6324 30.7244 13.9123 30.7243C14.1278 30.7243 14.3444 30.6723 14.5445 30.5671L20.0009 27.6985L25.4569 30.5672C25.6505 30.6689 25.8687 30.7228 26.0875 30.7228C26.3759 30.7228 26.6515 30.6332 26.8847 30.4638C27.3046 30.1584 27.5113 29.6505 27.4237 29.138L27.0116 26.7343C26.9525 26.3905 26.6257 26.1596 26.2823 26.2185C25.9384 26.2775 25.7076 26.6041 25.7666 26.9478L26.1787 29.3511C26.1846 29.3858 26.1701 29.4216 26.1419 29.4421C26.1 29.4726 26.0696 29.4623 26.0444 29.449L20.2944 26.426C20.1105 26.3294 19.8908 26.3293 19.7066 26.426L13.956 29.4492C13.9253 29.4653 13.8871 29.4625 13.8589 29.4421C13.8302 29.4212 13.8161 29.3867 13.8221 29.3515L14.9204 22.9485C14.9556 22.7435 14.8877 22.5345 14.7388 22.3894L10.0869 17.8552C10.0617 17.8306 10.0523 17.7932 10.063 17.7603C10.0739 17.7269 10.1033 17.7021 10.1379 17.6971L16.5669 16.7628C16.7727 16.7329 16.9505 16.6038 17.0425 16.4173L19.9179 10.5914C19.9491 10.5281 20.0519 10.5275 20.0834 10.5917L22.9587 16.4173C23.0507 16.6037 23.2286 16.7329 23.4343 16.7628L29.8634 17.6971C29.8979 17.7021 29.9271 17.7267 29.938 17.7605C29.9488 17.7935 29.9395 17.8306 29.9145 17.8549L25.2625 22.3894C25.1137 22.5345 25.0457 22.7436 25.0809 22.9485L25.428 24.9715C25.4868 25.3153 25.8135 25.5462 26.1571 25.4872C26.5009 25.4282 26.7319 25.1017 26.6728 24.7579L26.382 23.0621L30.7964 18.7592C31.1688 18.396 31.3001 17.8635 31.1394 17.37Z" stroke="#00B307" stroke-width="0.3"/>
    <path d="M31.1394 17.37C30.9791 16.8754 30.5595 16.5217 30.0449 16.4471L23.9446 15.5606L21.2166 10.0333C20.9869 9.56674 20.521 9.27698 20.0009 9.27698C19.4808 9.27698 19.0148 9.56674 18.7852 10.0328L16.057 15.5606L9.95664 16.4471C9.44234 16.5217 9.02297 16.8752 8.86211 17.3699C8.7018 17.8638 8.83313 18.3961 9.20523 18.7594L13.6197 23.0621L12.5776 29.1377C12.4895 29.6499 12.696 30.1581 13.1166 30.4638C13.3543 30.6366 13.6324 30.7244 13.9123 30.7243C14.1278 30.7243 14.3444 30.6723 14.5445 30.5671L20.0009 27.6985L25.4569 30.5672C25.6505 30.6689 25.8687 30.7228 26.0875 30.7228C26.3759 30.7228 26.6515 30.6332 26.8847 30.4638C27.3046 30.1584 27.5113 29.6505 27.4237 29.138L27.0116 26.7343C26.9525 26.3905 26.6257 26.1596 26.2823 26.2185C25.9384 26.2775 25.7076 26.6041 25.7666 26.9478L26.1787 29.3511C26.1846 29.3858 26.1701 29.4216 26.1419 29.4421C26.1 29.4726 26.0696 29.4623 26.0444 29.449L20.2944 26.426C20.1105 26.3294 19.8908 26.3293 19.7066 26.426L13.956 29.4492C13.9253 29.4653 13.8871 29.4625 13.8589 29.4421C13.8302 29.4212 13.8161 29.3867 13.8221 29.3515L14.9204 22.9485C14.9556 22.7435 14.8877 22.5345 14.7388 22.3894L10.0869 17.8552C10.0617 17.8306 10.0523 17.7932 10.063 17.7603C10.0739 17.7269 10.1033 17.7021 10.1379 17.6971L16.5669 16.7628C16.7727 16.7329 16.9505 16.6038 17.0425 16.4173L19.9179 10.5914C19.9491 10.5281 20.0519 10.5275 20.0834 10.5917L22.9587 16.4173C23.0507 16.6037 23.2286 16.7329 23.4343 16.7628L29.8634 17.6971C29.8979 17.7021 29.9271 17.7267 29.938 17.7605C29.9488 17.7935 29.9395 17.8306 29.9145 17.8549L25.2625 22.3894C25.1137 22.5345 25.0457 22.7436 25.0809 22.9485L25.428 24.9715C25.4868 25.3153 25.8135 25.5462 26.1571 25.4872C26.5009 25.4282 26.7319 25.1017 26.6728 24.7579L26.382 23.0621L30.7964 18.7592C31.1688 18.396 31.3001 17.8635 31.1394 17.37Z" stroke="black" stroke-opacity="0.2" stroke-width="0.3"/>
    <path d="M3.63141 19.3684H0.631562C0.282734 19.3684 0 19.6511 0 20C0 20.3488 0.282734 20.6315 0.631562 20.6315H3.63141C3.98031 20.6315 4.26297 20.3487 4.26297 20C4.26297 19.6511 3.98023 19.3684 3.63141 19.3684Z" fill="#00B307"/>
    <path d="M3.63141 19.3684H0.631562C0.282734 19.3684 0 19.6511 0 20C0 20.3488 0.282734 20.6315 0.631562 20.6315H3.63141C3.98031 20.6315 4.26297 20.3487 4.26297 20C4.26297 19.6511 3.98023 19.3684 3.63141 19.3684Z" fill="black" fill-opacity="0.2"/>
    <path d="M3.63141 19.3684H0.631562C0.282734 19.3684 0 19.6511 0 20C0 20.3488 0.282734 20.6315 0.631562 20.6315H3.63141C3.98031 20.6315 4.26297 20.3487 4.26297 20C4.26297 19.6511 3.98023 19.3684 3.63141 19.3684Z" stroke="#00B307" stroke-width="0.3"/>
    <path d="M3.63141 19.3684H0.631562C0.282734 19.3684 0 19.6511 0 20C0 20.3488 0.282734 20.6315 0.631562 20.6315H3.63141C3.98031 20.6315 4.26297 20.3487 4.26297 20C4.26297 19.6511 3.98023 19.3684 3.63141 19.3684Z" stroke="black" stroke-opacity="0.2" stroke-width="0.3"/>
    <path d="M39.3677 19.3684H36.3679C36.019 19.3684 35.7363 19.6512 35.7363 20C35.7363 20.3488 36.0191 20.6315 36.3679 20.6315H39.3677C39.7166 20.6315 39.9992 20.3487 39.9992 20C39.9992 19.6511 39.7166 19.3684 39.3677 19.3684Z" fill="#00B307"/>
    <path d="M39.3677 19.3684H36.3679C36.019 19.3684 35.7363 19.6512 35.7363 20C35.7363 20.3488 36.0191 20.6315 36.3679 20.6315H39.3677C39.7166 20.6315 39.9992 20.3487 39.9992 20C39.9992 19.6511 39.7166 19.3684 39.3677 19.3684Z" fill="black" fill-opacity="0.2"/>
    <path d="M39.3677 19.3684H36.3679C36.019 19.3684 35.7363 19.6512 35.7363 20C35.7363 20.3488 36.0191 20.6315 36.3679 20.6315H39.3677C39.7166 20.6315 39.9992 20.3487 39.9992 20C39.9992 19.6511 39.7166 19.3684 39.3677 19.3684Z" stroke="#00B307" stroke-width="0.3"/>
    <path d="M39.3677 19.3684H36.3679C36.019 19.3684 35.7363 19.6512 35.7363 20C35.7363 20.3488 36.0191 20.6315 36.3679 20.6315H39.3677C39.7166 20.6315 39.9992 20.3487 39.9992 20C39.9992 19.6511 39.7166 19.3684 39.3677 19.3684Z" stroke="black" stroke-opacity="0.2" stroke-width="0.3"/>
    <path d="M7.98005 31.1275L5.85888 33.2487C5.61216 33.4952 5.61216 33.8951 5.8588 34.1418C5.98216 34.2651 6.1438 34.3268 6.30544 34.3268C6.467 34.3268 6.62872 34.2651 6.75192 34.1419L8.8731 32.0207C9.11981 31.7741 9.11981 31.3742 8.87317 31.1275C8.62653 30.8809 8.22661 30.8809 7.98005 31.1275Z" fill="#00B307"/>
    <path d="M7.98005 31.1275L5.85888 33.2487C5.61216 33.4952 5.61216 33.8951 5.8588 34.1418C5.98216 34.2651 6.1438 34.3268 6.30544 34.3268C6.467 34.3268 6.62872 34.2651 6.75192 34.1419L8.8731 32.0207C9.11981 31.7741 9.11981 31.3742 8.87317 31.1275C8.62653 30.8809 8.22661 30.8809 7.98005 31.1275Z" fill="black" fill-opacity="0.2"/>
    <path d="M7.98005 31.1275L5.85888 33.2487C5.61216 33.4952 5.61216 33.8951 5.8588 34.1418C5.98216 34.2651 6.1438 34.3268 6.30544 34.3268C6.467 34.3268 6.62872 34.2651 6.75192 34.1419L8.8731 32.0207C9.11981 31.7741 9.11981 31.3742 8.87317 31.1275C8.62653 30.8809 8.22661 30.8809 7.98005 31.1275Z" stroke="#00B307" stroke-width="0.3"/>
    <path d="M7.98005 31.1275L5.85888 33.2487C5.61216 33.4952 5.61216 33.8951 5.8588 34.1418C5.98216 34.2651 6.1438 34.3268 6.30544 34.3268C6.467 34.3268 6.62872 34.2651 6.75192 34.1419L8.8731 32.0207C9.11981 31.7741 9.11981 31.3742 8.87317 31.1275C8.62653 30.8809 8.22661 30.8809 7.98005 31.1275Z" stroke="black" stroke-opacity="0.2" stroke-width="0.3"/>
    <path d="M33.2496 5.85749L31.1284 7.97859C30.8817 8.22523 30.8817 8.62515 31.1283 8.87179C31.2517 8.99515 31.4133 9.05679 31.575 9.05679C31.7366 9.05679 31.8982 8.99515 32.0214 8.87171L34.1427 6.75062C34.3894 6.50406 34.3894 6.10413 34.1428 5.85749C33.8961 5.61077 33.4962 5.6107 33.2496 5.85749Z" fill="#00B307"/>
    <path d="M33.2496 5.85749L31.1284 7.97859C30.8817 8.22523 30.8817 8.62515 31.1283 8.87179C31.2517 8.99515 31.4133 9.05679 31.575 9.05679C31.7366 9.05679 31.8982 8.99515 32.0214 8.87171L34.1427 6.75062C34.3894 6.50406 34.3894 6.10413 34.1428 5.85749C33.8961 5.61077 33.4962 5.6107 33.2496 5.85749Z" fill="black" fill-opacity="0.2"/>
    <path d="M33.2496 5.85749L31.1284 7.97859C30.8817 8.22523 30.8817 8.62515 31.1283 8.87179C31.2517 8.99515 31.4133 9.05679 31.575 9.05679C31.7366 9.05679 31.8982 8.99515 32.0214 8.87171L34.1427 6.75062C34.3894 6.50406 34.3894 6.10413 34.1428 5.85749C33.8961 5.61077 33.4962 5.6107 33.2496 5.85749Z" stroke="#00B307" stroke-width="0.3"/>
    <path d="M33.2496 5.85749L31.1284 7.97859C30.8817 8.22523 30.8817 8.62515 31.1283 8.87179C31.2517 8.99515 31.4133 9.05679 31.575 9.05679C31.7366 9.05679 31.8982 8.99515 32.0214 8.87171L34.1427 6.75062C34.3894 6.50406 34.3894 6.10413 34.1428 5.85749C33.8961 5.61077 33.4962 5.6107 33.2496 5.85749Z" stroke="black" stroke-opacity="0.2" stroke-width="0.3"/>
    <path d="M20.0007 35.7375C19.6518 35.7375 19.3691 36.0203 19.3691 36.3691V39.3688C19.3691 39.7176 19.6519 40.0004 20.0007 40.0004C20.3496 40.0004 20.6322 39.7176 20.6322 39.3688V36.3691C20.6322 36.0202 20.3496 35.7375 20.0007 35.7375Z" fill="#00B307"/>
    <path d="M20.0007 35.7375C19.6518 35.7375 19.3691 36.0203 19.3691 36.3691V39.3688C19.3691 39.7176 19.6519 40.0004 20.0007 40.0004C20.3496 40.0004 20.6322 39.7176 20.6322 39.3688V36.3691C20.6322 36.0202 20.3496 35.7375 20.0007 35.7375Z" fill="black" fill-opacity="0.2"/>
    <path d="M20.0007 35.7375C19.6518 35.7375 19.3691 36.0203 19.3691 36.3691V39.3688C19.3691 39.7176 19.6519 40.0004 20.0007 40.0004C20.3496 40.0004 20.6322 39.7176 20.6322 39.3688V36.3691C20.6322 36.0202 20.3496 35.7375 20.0007 35.7375Z" stroke="#00B307" stroke-width="0.3"/>
    <path d="M20.0007 35.7375C19.6518 35.7375 19.3691 36.0203 19.3691 36.3691V39.3688C19.3691 39.7176 19.6519 40.0004 20.0007 40.0004C20.3496 40.0004 20.6322 39.7176 20.6322 39.3688V36.3691C20.6322 36.0202 20.3496 35.7375 20.0007 35.7375Z" stroke="black" stroke-opacity="0.2" stroke-width="0.3"/>
    <path d="M20.0007 4.26303C20.3496 4.26303 20.6322 3.98022 20.6322 3.63147V0.631623C20.6322 0.282795 20.3495 6.10352e-05 20.0007 6.10352e-05C19.6518 6.10352e-05 19.3691 0.282873 19.3691 0.631623V3.63147C19.3691 3.9803 19.6518 4.26303 20.0007 4.26303Z" fill="#00B307"/>
    <path d="M20.0007 4.26303C20.3496 4.26303 20.6322 3.98022 20.6322 3.63147V0.631623C20.6322 0.282795 20.3495 6.10352e-05 20.0007 6.10352e-05C19.6518 6.10352e-05 19.3691 0.282873 19.3691 0.631623V3.63147C19.3691 3.9803 19.6518 4.26303 20.0007 4.26303Z" fill="black" fill-opacity="0.2"/>
    <path d="M20.0007 4.26303C20.3496 4.26303 20.6322 3.98022 20.6322 3.63147V0.631623C20.6322 0.282795 20.3495 6.10352e-05 20.0007 6.10352e-05C19.6518 6.10352e-05 19.3691 0.282873 19.3691 0.631623V3.63147C19.3691 3.9803 19.6518 4.26303 20.0007 4.26303Z" stroke="#00B307" stroke-width="0.3"/>
    <path d="M20.0007 4.26303C20.3496 4.26303 20.6322 3.98022 20.6322 3.63147V0.631623C20.6322 0.282795 20.3495 6.10352e-05 20.0007 6.10352e-05C19.6518 6.10352e-05 19.3691 0.282873 19.3691 0.631623V3.63147C19.3691 3.9803 19.6518 4.26303 20.0007 4.26303Z" stroke="black" stroke-opacity="0.2" stroke-width="0.3"/>
    <path d="M32.0214 31.1275C31.775 30.8808 31.375 30.8808 31.1283 31.1275C30.8817 31.374 30.8817 31.774 31.1284 32.0206L33.2496 34.1418C33.3729 34.2652 33.5346 34.3268 33.6962 34.3268C33.8578 34.3268 34.0195 34.2652 34.1428 34.1417C34.3894 33.8952 34.3894 33.4952 34.1427 33.2486L32.0214 31.1275Z" fill="#00B307"/>
    <path d="M32.0214 31.1275C31.775 30.8808 31.375 30.8808 31.1283 31.1275C30.8817 31.374 30.8817 31.774 31.1284 32.0206L33.2496 34.1418C33.3729 34.2652 33.5346 34.3268 33.6962 34.3268C33.8578 34.3268 34.0195 34.2652 34.1428 34.1417C34.3894 33.8952 34.3894 33.4952 34.1427 33.2486L32.0214 31.1275Z" fill="black" fill-opacity="0.2"/>
    <path d="M32.0214 31.1275C31.775 30.8808 31.375 30.8808 31.1283 31.1275C30.8817 31.374 30.8817 31.774 31.1284 32.0206L33.2496 34.1418C33.3729 34.2652 33.5346 34.3268 33.6962 34.3268C33.8578 34.3268 34.0195 34.2652 34.1428 34.1417C34.3894 33.8952 34.3894 33.4952 34.1427 33.2486L32.0214 31.1275Z" stroke="#00B307" stroke-width="0.3"/>
    <path d="M32.0214 31.1275C31.775 30.8808 31.375 30.8808 31.1283 31.1275C30.8817 31.374 30.8817 31.774 31.1284 32.0206L33.2496 34.1418C33.3729 34.2652 33.5346 34.3268 33.6962 34.3268C33.8578 34.3268 34.0195 34.2652 34.1428 34.1417C34.3894 33.8952 34.3894 33.4952 34.1427 33.2486L32.0214 31.1275Z" stroke="black" stroke-opacity="0.2" stroke-width="0.3"/>
    <path d="M7.97998 8.87201C8.10333 8.99537 8.26497 9.05701 8.42661 9.05701C8.58818 9.05701 8.7499 8.99537 8.87318 8.87217C9.11982 8.62553 9.11982 8.22561 8.87318 7.97897L6.75201 5.85771C6.50545 5.61107 6.1056 5.61107 5.85881 5.85771C5.61217 6.10427 5.61217 6.5042 5.85881 6.75084L7.97998 8.87201Z" fill="#00B307"/>
    <path d="M7.97998 8.87201C8.10333 8.99537 8.26497 9.05701 8.42661 9.05701C8.58818 9.05701 8.7499 8.99537 8.87318 8.87217C9.11982 8.62553 9.11982 8.22561 8.87318 7.97897L6.75201 5.85771C6.50545 5.61107 6.1056 5.61107 5.85881 5.85771C5.61217 6.10427 5.61217 6.5042 5.85881 6.75084L7.97998 8.87201Z" fill="black" fill-opacity="0.2"/>
    <path d="M7.97998 8.87201C8.10333 8.99537 8.26497 9.05701 8.42661 9.05701C8.58818 9.05701 8.7499 8.99537 8.87318 8.87217C9.11982 8.62553 9.11982 8.22561 8.87318 7.97897L6.75201 5.85771C6.50545 5.61107 6.1056 5.61107 5.85881 5.85771C5.61217 6.10427 5.61217 6.5042 5.85881 6.75084L7.97998 8.87201Z" stroke="#00B307" stroke-width="0.3"/>
    <path d="M7.97998 8.87201C8.10333 8.99537 8.26497 9.05701 8.42661 9.05701C8.58818 9.05701 8.7499 8.99537 8.87318 8.87217C9.11982 8.62553 9.11982 8.22561 8.87318 7.97897L6.75201 5.85771C6.50545 5.61107 6.1056 5.61107 5.85881 5.85771C5.61217 6.10427 5.61217 6.5042 5.85881 6.75084L7.97998 8.87201Z" stroke="black" stroke-opacity="0.2" stroke-width="0.3"/>
  </g>
  <defs>
    <clipPath id="clip0_1956_26162">
      <rect width="40" height="40" fill="white"/>
    </clipPath>
  </defs>
</svg>