<svg xmlns="http://www.w3.org/2000/svg" width="40" height="40" viewBox="0 0 40 40" fill="none">
  <g clip-path="url(#clip0_1956_26153)">
    <path d="M36.4909 0.538888C36.4377 0.343091 36.3051 0.178352 36.1251 0.0845746C35.7699 -0.103383 35.3295 0.032208 35.1415 0.387417C35.141 0.388321 35.1405 0.389226 35.1401 0.390131C35.1401 0.410233 31.4533 7.56266 20.1357 8.809C18.6593 8.96651 17.2163 9.35167 15.8579 9.95082C13.4264 11.0079 11.4183 12.8477 10.1528 15.1774C8.9714 17.3659 8.48211 19.8614 8.74967 22.3339C8.94678 24.1363 9.54874 25.8708 10.5106 27.4077C8.50041 28.8511 2.12393 33.8405 1.54901 39.1957C1.50679 39.5954 1.79667 39.9536 2.1963 39.9958C2.59604 40.038 2.95416 39.7482 2.99638 39.3485C3.52306 34.5682 9.50552 29.9326 11.371 28.5897C13.6104 31.3397 16.9635 32.8916 20.5618 33.1449C22.9837 33.3012 25.4084 32.8882 27.6419 31.9388C30.0664 30.9215 32.2077 29.3307 33.8817 27.3032C38.1956 22.0766 40.2501 13.2918 36.4909 0.538888ZM11.7892 26.6881C11.5117 26.2511 11.2672 25.7942 11.0574 25.3211C10.616 24.3227 10.3312 23.2623 10.2131 22.1771C9.96687 19.9995 10.3874 17.7984 11.4193 15.8649C12.5345 13.8151 14.3037 12.1975 16.4449 11.2695C17.669 10.7365 18.9682 10.3962 20.2965 10.2604C27.7665 9.4563 32.1609 6.13137 34.4284 3.71908C33.0962 8.10532 30.8024 12.1393 27.7143 15.5272L27.272 11.0725C27.2495 10.6713 26.9059 10.3642 26.5047 10.3867C26.1034 10.4093 25.7964 10.7528 25.8189 11.154C25.82 11.1738 25.8219 11.1936 25.8246 11.2132L26.3915 16.9384C23.0103 20.3679 18.3104 23.8134 11.7892 26.6881ZM32.7559 26.3704V26.3745C31.235 28.2262 29.2868 29.6805 27.079 30.612C25.0488 31.47 22.8453 31.8391 20.6463 31.6895C17.585 31.5344 14.7122 30.1639 12.6656 27.8821C15.064 26.8208 17.383 25.5888 19.605 24.1954L25.9935 25.4015C26.3905 25.4637 26.7628 25.1922 26.825 24.7952C26.885 24.4123 26.6343 24.0494 26.2548 23.9702L21.3458 23.0415C23.6125 21.4848 25.7224 19.7114 27.6459 17.7465C27.6812 17.7162 27.7134 17.6825 27.7424 17.646C32.8162 12.3631 34.9752 7.13649 35.8758 3.92011C38.3605 14.5181 36.4588 21.8916 32.7559 26.3704Z" fill="#00B307"/>
    <path d="M36.4909 0.538888C36.4377 0.343091 36.3051 0.178352 36.1251 0.0845746C35.7699 -0.103383 35.3295 0.032208 35.1415 0.387417C35.141 0.388321 35.1405 0.389226 35.1401 0.390131C35.1401 0.410233 31.4533 7.56266 20.1357 8.809C18.6593 8.96651 17.2163 9.35167 15.8579 9.95082C13.4264 11.0079 11.4183 12.8477 10.1528 15.1774C8.9714 17.3659 8.48211 19.8614 8.74967 22.3339C8.94678 24.1363 9.54874 25.8708 10.5106 27.4077C8.50041 28.8511 2.12393 33.8405 1.54901 39.1957C1.50679 39.5954 1.79667 39.9536 2.1963 39.9958C2.59604 40.038 2.95416 39.7482 2.99638 39.3485C3.52306 34.5682 9.50552 29.9326 11.371 28.5897C13.6104 31.3397 16.9635 32.8916 20.5618 33.1449C22.9837 33.3012 25.4084 32.8882 27.6419 31.9388C30.0664 30.9215 32.2077 29.3307 33.8817 27.3032C38.1956 22.0766 40.2501 13.2918 36.4909 0.538888ZM11.7892 26.6881C11.5117 26.2511 11.2672 25.7942 11.0574 25.3211C10.616 24.3227 10.3312 23.2623 10.2131 22.1771C9.96687 19.9995 10.3874 17.7984 11.4193 15.8649C12.5345 13.8151 14.3037 12.1975 16.4449 11.2695C17.669 10.7365 18.9682 10.3962 20.2965 10.2604C27.7665 9.4563 32.1609 6.13137 34.4284 3.71908C33.0962 8.10532 30.8024 12.1393 27.7143 15.5272L27.272 11.0725C27.2495 10.6713 26.9059 10.3642 26.5047 10.3867C26.1034 10.4093 25.7964 10.7528 25.8189 11.154C25.82 11.1738 25.8219 11.1936 25.8246 11.2132L26.3915 16.9384C23.0103 20.3679 18.3104 23.8134 11.7892 26.6881ZM32.7559 26.3704V26.3745C31.235 28.2262 29.2868 29.6805 27.079 30.612C25.0488 31.47 22.8453 31.8391 20.6463 31.6895C17.585 31.5344 14.7122 30.1639 12.6656 27.8821C15.064 26.8208 17.383 25.5888 19.605 24.1954L25.9935 25.4015C26.3905 25.4637 26.7628 25.1922 26.825 24.7952C26.885 24.4123 26.6343 24.0494 26.2548 23.9702L21.3458 23.0415C23.6125 21.4848 25.7224 19.7114 27.6459 17.7465C27.6812 17.7162 27.7134 17.6825 27.7424 17.646C32.8162 12.3631 34.9752 7.13649 35.8758 3.92011C38.3605 14.5181 36.4588 21.8916 32.7559 26.3704Z" fill="black" fill-opacity="0.2"/>
  </g>
  <defs>
    <clipPath id="clip0_1956_26153">
      <rect width="40" height="40" fill="white"/>
    </clipPath>
  </defs>
</svg>