<svg width="32" height="33" viewBox="0 0 32 33" fill="none" xmlns="http://www.w3.org/2000/svg">
<g clip-path="url(#clip0_1951_38024)">
<path d="M28.0671 24.75C28.326 24.75 28.5359 24.5401 28.5359 24.2812V13.0312C28.5359 12.4717 28.3178 11.8994 27.9219 11.4197L24.4454 7.20762C24.2633 6.98694 24.0539 6.80094 23.8265 6.65281C23.8405 6.50956 23.8484 6.36487 23.8484 6.21881V0.968811C23.8484 0.709936 23.6385 0.500061 23.3797 0.500061C23.1208 0.500061 22.9109 0.709936 22.9109 0.968811C22.9109 0.968811 22.91 6.2635 22.9096 6.28587C22.7762 6.26225 22.6409 6.25006 22.5047 6.25006H16.4422C16.0154 6.25006 15.597 6.36981 15.2224 6.58987C15.2062 6.59569 15.1902 6.60219 15.1744 6.60987L10.605 8.83562C10.0987 9.08956 9.69392 9.5155 9.46498 10.0349C9.46248 10.0406 9.46011 10.0463 9.45786 10.0521L7.56861 14.8441C7.47367 15.0849 7.59192 15.3571 7.83279 15.4521C7.88923 15.4744 7.94736 15.4849 8.00461 15.4849C8.19148 15.4849 8.36811 15.3723 8.44079 15.1879L10.3264 10.4052C10.4682 10.0884 10.7161 9.82881 11.0204 9.67606L13.4347 8.50012L11.0249 11.4198C10.6641 11.8569 10.4734 12.4142 10.4734 13.0314V29.2189C10.4734 29.4074 10.49 29.5919 10.52 29.7718L5.68992 27.6316C4.59879 27.1481 4.10429 25.8639 4.58779 24.7689C4.58986 24.7642 4.59186 24.7594 4.59386 24.7546L7.64904 17.1619C7.74567 16.9217 7.62936 16.6487 7.38917 16.552C7.14886 16.4554 6.87598 16.5717 6.77929 16.8119L3.72679 24.3976C3.04042 25.9632 3.74942 27.7971 5.31011 28.4886L10.9741 30.9983C10.981 31.0014 10.9881 31.0036 10.9951 31.0063C11.57 31.9046 12.5639 32.5 13.6922 32.5H25.2547C27.0333 32.5 28.5359 30.9974 28.5359 29.2188V26.4688C28.5359 26.2099 28.326 26 28.0672 26C27.8083 26 27.5984 26.2099 27.5984 26.4688V29.2188C27.5984 30.4892 26.5251 31.5625 25.2547 31.5625H13.6922C12.4343 31.5625 11.4109 30.5111 11.4109 29.2188V13.0312C11.4109 12.6289 11.5243 12.2874 11.748 12.0165L15.2244 7.80437C15.548 7.41237 15.9919 7.1875 16.4422 7.1875H22.5047C22.593 7.1875 22.681 7.19644 22.7679 7.21331C22.4745 8.214 21.7476 9.049 20.766 9.46744C20.5094 9.03812 20.0401 8.75 19.5046 8.75C18.6947 8.75 18.0359 9.40887 18.0359 10.2187C18.0359 11.0286 18.6947 11.6875 19.5046 11.6875C20.2535 11.6875 20.8729 11.1239 20.962 10.3986C22.2244 9.92106 23.179 8.90931 23.6044 7.67437C23.6452 7.71544 23.6847 7.75862 23.7224 7.80437L27.1989 12.0166C27.4565 12.3287 27.5984 12.6891 27.5984 13.0313V24.2813C27.5984 24.5401 27.8082 24.75 28.0671 24.75ZM19.5046 10.75C19.2117 10.75 18.9734 10.5117 18.9734 10.2187C18.9734 9.92581 19.2117 9.6875 19.5046 9.6875C19.7975 9.6875 20.0359 9.92581 20.0359 10.2187C20.0359 10.5117 19.7975 10.75 19.5046 10.75Z" fill="#00B307"/>
<path d="M28.0671 24.75C28.326 24.75 28.5359 24.5401 28.5359 24.2812V13.0312C28.5359 12.4717 28.3178 11.8994 27.9219 11.4197L24.4454 7.20762C24.2633 6.98694 24.0539 6.80094 23.8265 6.65281C23.8405 6.50956 23.8484 6.36487 23.8484 6.21881V0.968811C23.8484 0.709936 23.6385 0.500061 23.3797 0.500061C23.1208 0.500061 22.9109 0.709936 22.9109 0.968811C22.9109 0.968811 22.91 6.2635 22.9096 6.28587C22.7762 6.26225 22.6409 6.25006 22.5047 6.25006H16.4422C16.0154 6.25006 15.597 6.36981 15.2224 6.58987C15.2062 6.59569 15.1902 6.60219 15.1744 6.60987L10.605 8.83562C10.0987 9.08956 9.69392 9.5155 9.46498 10.0349C9.46248 10.0406 9.46011 10.0463 9.45786 10.0521L7.56861 14.8441C7.47367 15.0849 7.59192 15.3571 7.83279 15.4521C7.88923 15.4744 7.94736 15.4849 8.00461 15.4849C8.19148 15.4849 8.36811 15.3723 8.44079 15.1879L10.3264 10.4052C10.4682 10.0884 10.7161 9.82881 11.0204 9.67606L13.4347 8.50012L11.0249 11.4198C10.6641 11.8569 10.4734 12.4142 10.4734 13.0314V29.2189C10.4734 29.4074 10.49 29.5919 10.52 29.7718L5.68992 27.6316C4.59879 27.1481 4.10429 25.8639 4.58779 24.7689C4.58986 24.7642 4.59186 24.7594 4.59386 24.7546L7.64904 17.1619C7.74567 16.9217 7.62936 16.6487 7.38917 16.552C7.14886 16.4554 6.87598 16.5717 6.77929 16.8119L3.72679 24.3976C3.04042 25.9632 3.74942 27.7971 5.31011 28.4886L10.9741 30.9983C10.981 31.0014 10.9881 31.0036 10.9951 31.0063C11.57 31.9046 12.5639 32.5 13.6922 32.5H25.2547C27.0333 32.5 28.5359 30.9974 28.5359 29.2188V26.4688C28.5359 26.2099 28.326 26 28.0672 26C27.8083 26 27.5984 26.2099 27.5984 26.4688V29.2188C27.5984 30.4892 26.5251 31.5625 25.2547 31.5625H13.6922C12.4343 31.5625 11.4109 30.5111 11.4109 29.2188V13.0312C11.4109 12.6289 11.5243 12.2874 11.748 12.0165L15.2244 7.80437C15.548 7.41237 15.9919 7.1875 16.4422 7.1875H22.5047C22.593 7.1875 22.681 7.19644 22.7679 7.21331C22.4745 8.214 21.7476 9.049 20.766 9.46744C20.5094 9.03812 20.0401 8.75 19.5046 8.75C18.6947 8.75 18.0359 9.40887 18.0359 10.2187C18.0359 11.0286 18.6947 11.6875 19.5046 11.6875C20.2535 11.6875 20.8729 11.1239 20.962 10.3986C22.2244 9.92106 23.179 8.90931 23.6044 7.67437C23.6452 7.71544 23.6847 7.75862 23.7224 7.80437L27.1989 12.0166C27.4565 12.3287 27.5984 12.6891 27.5984 13.0313V24.2813C27.5984 24.5401 27.8082 24.75 28.0671 24.75ZM19.5046 10.75C19.2117 10.75 18.9734 10.5117 18.9734 10.2187C18.9734 9.92581 19.2117 9.6875 19.5046 9.6875C19.7975 9.6875 20.0359 9.92581 20.0359 10.2187C20.0359 10.5117 19.7975 10.75 19.5046 10.75Z" fill="black" fill-opacity="0.2"/>
<path d="M15.4424 25.4375C15.5623 25.4375 15.6823 25.3917 15.7738 25.3002L23.7738 17.3002C23.9569 17.1171 23.9569 16.8203 23.7738 16.6373C23.5908 16.4542 23.294 16.4542 23.111 16.6373L15.111 24.6373C14.8121 24.9159 15.0414 25.4517 15.4424 25.4375Z" fill="#00B307"/>
<path d="M15.4424 25.4375C15.5623 25.4375 15.6823 25.3917 15.7738 25.3002L23.7738 17.3002C23.9569 17.1171 23.9569 16.8203 23.7738 16.6373C23.5908 16.4542 23.294 16.4542 23.111 16.6373L15.111 24.6373C14.8121 24.9159 15.0414 25.4517 15.4424 25.4375Z" fill="black" fill-opacity="0.2"/>
<path d="M16.4419 20.4999C17.5619 20.4999 18.4731 19.5887 18.4731 18.4687C18.4731 17.3487 17.5619 16.4374 16.4419 16.4374H16.3794C15.2594 16.4374 14.3481 17.3487 14.3481 18.4687C14.3481 19.5887 15.2594 20.4999 16.3794 20.4999H16.4419ZM15.2856 18.4687C15.2856 17.8656 15.7763 17.3749 16.3794 17.3749H16.4419C17.045 17.3749 17.5356 17.8656 17.5356 18.4687C17.5356 19.0718 17.045 19.5624 16.4419 19.5624H16.3794C15.7763 19.5624 15.2856 19.0718 15.2856 18.4687Z" fill="#00B307"/>
<path d="M16.4419 20.4999C17.5619 20.4999 18.4731 19.5887 18.4731 18.4687C18.4731 17.3487 17.5619 16.4374 16.4419 16.4374H16.3794C15.2594 16.4374 14.3481 17.3487 14.3481 18.4687C14.3481 19.5887 15.2594 20.4999 16.3794 20.4999H16.4419ZM15.2856 18.4687C15.2856 17.8656 15.7763 17.3749 16.3794 17.3749H16.4419C17.045 17.3749 17.5356 17.8656 17.5356 18.4687C17.5356 19.0718 17.045 19.5624 16.4419 19.5624H16.3794C15.7763 19.5624 15.2856 19.0718 15.2856 18.4687Z" fill="black" fill-opacity="0.2"/>
<path d="M22.5044 25.4374H22.5669C23.6869 25.4374 24.5981 24.5262 24.5981 23.4062C24.5981 22.2862 23.6869 21.3749 22.5669 21.3749H22.5044C21.3844 21.3749 20.4731 22.2862 20.4731 23.4062C20.4731 24.5262 21.3844 25.4374 22.5044 25.4374ZM22.5044 22.3124H22.5669C23.17 22.3124 23.6606 22.8031 23.6606 23.4062C23.6606 24.0093 23.17 24.4999 22.5669 24.4999H22.5044C21.9013 24.4999 21.4106 24.0093 21.4106 23.4062C21.4106 22.8031 21.9013 22.3124 22.5044 22.3124Z" fill="#00B307"/>
<path d="M22.5044 25.4374H22.5669C23.6869 25.4374 24.5981 24.5262 24.5981 23.4062C24.5981 22.2862 23.6869 21.3749 22.5669 21.3749H22.5044C21.3844 21.3749 20.4731 22.2862 20.4731 23.4062C20.4731 24.5262 21.3844 25.4374 22.5044 25.4374ZM22.5044 22.3124H22.5669C23.17 22.3124 23.6606 22.8031 23.6606 23.4062C23.6606 24.0093 23.17 24.4999 22.5669 24.4999H22.5044C21.9013 24.4999 21.4106 24.0093 21.4106 23.4062C21.4106 22.8031 21.9013 22.3124 22.5044 22.3124Z" fill="black" fill-opacity="0.2"/>
</g>
<defs>
<clipPath id="clip0_1951_38024">
<rect width="32" height="32" fill="white" transform="translate(0 0.5)"/>
</clipPath>
</defs>
</svg>
